<svg xmlns="http://www.w3.org/2000/svg" viewBox="0 0 200 200">
  <rect width="200" height="200" fill="#0D0F1A"/>
  <path d="M100 155 C60 155 45 130 50 108 C54 90 65 82 68 70 C72 80 70 88 74 95 C80 75 88 55 100 45 C98 62 104 72 110 80 C114 68 112 55 118 48 C130 65 138 88 132 108 C128 124 118 138 115 148 C110 140 108 132 110 124 C104 132 102 144 100 155 Z" fill="#F97316"/>
  <path d="M100 145 C80 145 72 128 76 112 C80 100 88 95 90 88 C92 96 90 102 94 108 C98 92 104 78 112 70 C110 82 114 92 118 100 C120 90 118 80 122 74 C130 88 132 108 124 122 C120 132 112 140 110 146 C107 140 106 134 108 128 C104 134 102 140 100 145 Z" fill="#FCD34D" opacity="0.8"/>
  <ellipse cx="100" cy="165" rx="30" ry="7" fill="#F97316" opacity="0.25"/>
</svg>
